<svg xmlns="http://www.w3.org/2000/svg" viewBox="0 0 800 420" width="800" height="420" role="img" aria-label="Разброс цен на лендинг: от 3700 до 15000 гривен">
  <rect width="800" height="420" fill="#f8fafc"/>
  <text x="40" y="48" font-family="Inter,system-ui,sans-serif" font-size="21" font-weight="700" fill="#0f172a">Сколько стоит лендинг: разброс в 4 раза</text>
  <text x="40" y="74" font-family="Inter,system-ui,sans-serif" font-size="14" fill="#64748b">6 публичных прайсов, срез на 30 сентября 2026, гривен</text>

  <line x1="230" y1="100" x2="230" y2="368" stroke="#e2e8f0" stroke-width="1"/>

  <g font-family="Inter,system-ui,sans-serif" font-size="14" fill="#334155">
    <text x="40" y="126">Web-Lift</text>
    <text x="40" y="176">PAS7 Studio</text>
    <text x="40" y="226">Zharkov.dev</text>
    <text x="40" y="276">SUDUS</text>
    <text x="40" y="326">Web24</text>
    <text x="40" y="376">MaxWeb</text>
  </g>

  <g fill="#2563eb">
    <rect x="230" y="110" width="46" height="20" rx="3" opacity="0.85"/>
    <rect x="230" y="160" width="56" height="20" rx="3" opacity="0.7"/>
    <rect x="230" y="210" width="150" height="20" rx="3" opacity="0.85"/>
    <rect x="230" y="260" width="50" height="20" rx="3" opacity="0.6"/>
    <rect x="230" y="310" width="100" height="20" rx="3" opacity="0.75"/>
    <rect x="230" y="360" width="150" height="20" rx="3" opacity="0.9"/>
  </g>

  <g font-family="Inter,system-ui,sans-serif" font-size="13" font-weight="600" fill="#0f172a">
    <text x="288" y="125">3 700 ₴</text>
    <text x="298" y="175">4 500 ₴</text>
    <text x="392" y="225">6 200 ₴</text>
    <text x="292" y="275">5 000 ₴</text>
    <text x="342" y="325">10 000 ₴</text>
    <text x="392" y="375">15 000 ₴</text>
  </g>

  <text x="40" y="410" font-family="Inter,system-ui,sans-serif" font-size="12" fill="#94a3b8">Курс округлён: $1 ≈ 41 ₴, €1 ≈ 45 ₴. Данные собраны автоматически, ежедневно обновляются.</text>
</svg>
